<svg xmlns="http://www.w3.org/2000/svg" id="Layer_1" version="1.1" viewBox="356.09 425.28 1207.83 229.43">
  <!-- Generator: Adobe Illustrator 29.1.0, SVG Export Plug-In . SVG Version: 2.1.0 Build 142)  -->
  <defs>
    <style>
      .st0 {
        fill: #8b00ff;
      }

      .st1 {
        fill: #fff;
      }
    </style>
  </defs>
  <path class="st1" d="M679.97,481.5c-4.87,12.22-12.06,22.76-21.52,31.65-9.45,8.9-20.49,15.48-33.15,19.76l-.25.64c12.93,3.01,21.17,9.44,24.73,19.3,3.54,9.84,2.47,21.83-3.19,35.97-3.35,8.37-8.13,16.51-14.29,24.43-6.19,7.92-13.44,14.94-21.78,21.04-8.34,6.1-17.6,11.04-27.77,14.78-10.19,3.76-20.96,5.64-32.31,5.64h-110.85s3.91-9.74,3.91-9.74l.99,2.73h105.96c10.19,0,18.53-1.63,24.8-4.85,6.19-3.17,10.66-7.15,13.67-12.17,3.05-5.07,4.58-10.8,4.67-17.53.11-7.03-1.23-14.4-3.97-21.93-4.71-12.97-12.25-24.12-22.41-33.15-10.1-8.97-22.27-14.9-36.17-17.64l-3.83-.76-1.37-3.65-.24-.64-2.3-6.11,5.94-2.72c7.51-3.44,12.17-8.47,14.24-15.4,2.2-7.37,1.34-16.54-2.56-27.26-3.83-10.51-9.49-19.47-16.82-26.62-1.28-1.25-2.58-2.45-3.89-3.6l2.75-6.88,8.63-21.51h83.22c4.92,0,10.2.06,15.84.15,5.63.12,11.13.43,16.5.97,5.34.53,10.21,1.34,14.6,2.41,4.4,1.08,7.88,2.69,10.44,4.82,5.7,4.49,9.58,10.71,11.66,18.64,2.05,7.92.77,17.66-3.88,29.23Z"/>
  <path class="st0" d="M596.2,588.84c-5.14-14.14-13.26-26.14-24.34-35.99-11.09-9.85-24.24-16.28-39.47-19.28l-.24-.64c9.37-4.29,15.38-10.87,18.04-19.76,2.65-8.89,1.75-19.45-2.69-31.66-4.21-11.56-10.38-21.31-18.51-29.24-1.98-1.93-3.99-3.75-6.03-5.47-6.34-5.37-12.96-9.76-19.88-13.16-4.2-2.14-8.91-3.75-14.12-4.82s-10.7-1.88-16.46-2.41c-5.77-.53-11.51-.86-17.22-.97-5.72-.1-11.04-.16-15.97-.16h-83.22l83.5,229.43h110.86c11.35,0,20.69-1.87,28-5.62,7.31-3.75,12.8-8.68,16.47-14.79,3.67-6.1,5.56-13.11,5.67-21.04.12-7.92-1.35-16.07-4.39-24.42Z"/>
  <g>
    <path class="st1" d="M790.07,456.17h79.92c14.74,0,26.56,3.38,35.47,10.13,8.9,6.76,13.36,16.97,13.36,30.63,0,8.29-2.04,15.39-6.1,21.3-4.07,5.91-9.87,10.48-17.39,13.7v.46c10.13,2.15,17.81,6.95,23.03,14.39,5.22,7.45,7.83,16.78,7.83,27.98,0,6.45-1.15,12.48-3.45,18.08-2.3,5.61-5.91,10.44-10.82,14.51-4.92,4.07-11.21,7.29-18.89,9.67-7.68,2.38-16.81,3.57-27.41,3.57h-75.54v-164.44ZM818.86,525.03h46.98c6.91,0,12.67-1.96,17.27-5.87,4.61-3.92,6.91-9.56,6.91-16.93,0-8.29-2.07-14.12-6.22-17.5-4.15-3.38-10.13-5.07-17.96-5.07h-46.98v45.37ZM818.86,597.12h50.9c8.75,0,15.54-2.26,20.38-6.79,4.84-4.53,7.25-10.94,7.25-19.23s-2.42-14.39-7.25-18.77-11.63-6.56-20.38-6.56h-50.9v51.36Z"/>
    <path class="st1" d="M966.72,567.87c0,4.61.65,9.06,1.96,13.36,1.3,4.3,3.26,8.06,5.87,11.29,2.61,3.22,5.91,5.8,9.9,7.71,3.99,1.92,8.75,2.88,14.28,2.88,7.68,0,13.85-1.65,18.54-4.95,4.68-3.3,8.18-8.25,10.48-14.86h24.87c-1.38,6.45-3.76,12.21-7.14,17.27-3.38,5.07-7.45,9.33-12.21,12.78-4.76,3.46-10.1,6.07-16.01,7.83-5.91,1.76-12.09,2.65-18.54,2.65-9.37,0-17.66-1.54-24.87-4.61-7.22-3.07-13.32-7.37-18.31-12.9-4.99-5.53-8.75-12.13-11.29-19.81-2.53-7.68-3.8-16.12-3.8-25.33,0-8.44,1.34-16.47,4.03-24.07,2.68-7.6,6.52-14.28,11.52-20.04,4.99-5.76,11.02-10.32,18.08-13.71,7.06-3.38,15.05-5.07,23.95-5.07,9.36,0,17.77,1.96,25.22,5.87,7.45,3.92,13.62,9.1,18.54,15.55,4.91,6.45,8.48,13.86,10.71,22.22,2.22,8.37,2.8,17.01,1.73,25.91h-87.52ZM1027.98,550.59c-.31-4.15-1.19-8.14-2.65-11.98-1.46-3.84-3.45-7.18-5.99-10.02-2.53-2.84-5.61-5.14-9.21-6.91-3.61-1.76-7.64-2.65-12.09-2.65s-8.79.81-12.55,2.42c-3.76,1.61-6.99,3.84-9.67,6.68-2.69,2.84-4.84,6.18-6.45,10.02-1.61,3.84-2.5,7.99-2.65,12.44h61.26Z"/>
    <path class="st1" d="M1092.47,567.87c0,4.61.65,9.06,1.96,13.36,1.3,4.3,3.26,8.06,5.87,11.29,2.61,3.22,5.91,5.8,9.9,7.71,3.99,1.92,8.75,2.88,14.28,2.88,7.68,0,13.85-1.65,18.54-4.95,4.68-3.3,8.18-8.25,10.48-14.86h24.87c-1.38,6.45-3.76,12.21-7.14,17.27-3.38,5.07-7.45,9.33-12.21,12.78-4.76,3.46-10.1,6.07-16.01,7.83-5.91,1.76-12.09,2.65-18.54,2.65-9.37,0-17.66-1.54-24.87-4.61-7.22-3.07-13.32-7.37-18.31-12.9-4.99-5.53-8.75-12.13-11.29-19.81-2.53-7.68-3.8-16.12-3.8-25.33,0-8.44,1.34-16.47,4.03-24.07,2.69-7.6,6.52-14.28,11.52-20.04,4.99-5.76,11.02-10.32,18.08-13.71,7.06-3.38,15.04-5.07,23.95-5.07,9.36,0,17.77,1.96,25.22,5.87,7.45,3.92,13.62,9.1,18.54,15.55,4.91,6.45,8.48,13.86,10.71,22.22,2.22,8.37,2.8,17.01,1.73,25.91h-87.52ZM1153.73,550.59c-.31-4.15-1.19-8.14-2.65-11.98-1.46-3.84-3.45-7.18-5.99-10.02-2.53-2.84-5.61-5.14-9.21-6.91-3.61-1.76-7.64-2.65-12.09-2.65s-8.79.81-12.55,2.42c-3.76,1.61-6.99,3.84-9.67,6.68-2.69,2.84-4.84,6.18-6.45,10.02-1.61,3.84-2.5,7.99-2.65,12.44h61.26Z"/>
    <path class="st1" d="M1185.97,501.54h28.56l30.17,91.43h.46l29.02-91.43h27.18l-42.61,119.07h-29.48l-43.3-119.07Z"/>
    <path class="st1" d="M1369.53,623.83c-9.52,0-18-1.58-25.45-4.72-7.45-3.14-13.74-7.48-18.88-13.01-5.15-5.53-9.06-12.13-11.75-19.81-2.69-7.68-4.03-16.12-4.03-25.33s1.34-17.42,4.03-25.1c2.68-7.68,6.6-14.28,11.75-19.81,5.14-5.53,11.44-9.86,18.88-13.01,7.45-3.15,15.93-4.72,25.45-4.72s18,1.58,25.45,4.72c7.45,3.15,13.74,7.48,18.88,13.01,5.14,5.53,9.06,12.13,11.75,19.81,2.68,7.68,4.03,16.04,4.03,25.1s-1.35,17.66-4.03,25.33c-2.69,7.68-6.6,14.28-11.75,19.81-5.15,5.53-11.44,9.87-18.88,13.01-7.45,3.15-15.93,4.72-25.45,4.72ZM1369.53,603.1c5.83,0,10.9-1.23,15.2-3.69,4.3-2.45,7.83-5.68,10.59-9.67,2.76-3.99,4.8-8.48,6.1-13.47,1.3-4.99,1.96-10.1,1.96-15.32s-.66-10.13-1.96-15.2c-1.31-5.07-3.34-9.56-6.1-13.47-2.76-3.91-6.3-7.1-10.59-9.56-4.3-2.46-9.37-3.69-15.2-3.69s-10.9,1.23-15.2,3.69c-4.3,2.46-7.83,5.64-10.59,9.56-2.76,3.92-4.8,8.41-6.1,13.47-1.31,5.07-1.96,10.13-1.96,15.2s.65,10.33,1.96,15.32c1.3,4.99,3.34,9.48,6.1,13.47,2.76,3.99,6.29,7.22,10.59,9.67,4.3,2.46,9.36,3.69,15.2,3.69Z"/>
    <path class="st1" d="M1503.8,623.83c-9.52,0-18-1.58-25.45-4.72-7.45-3.14-13.74-7.48-18.88-13.01-5.15-5.53-9.06-12.13-11.75-19.81-2.69-7.68-4.03-16.12-4.03-25.33s1.34-17.42,4.03-25.1c2.68-7.68,6.6-14.28,11.75-19.81,5.14-5.53,11.44-9.86,18.88-13.01,7.45-3.15,15.93-4.72,25.45-4.72s18,1.58,25.45,4.72c7.45,3.15,13.74,7.48,18.89,13.01,5.14,5.53,9.06,12.13,11.75,19.81,2.69,7.68,4.03,16.04,4.03,25.1s-1.35,17.66-4.03,25.33c-2.69,7.68-6.6,14.28-11.75,19.81-5.15,5.53-11.44,9.87-18.89,13.01-7.45,3.15-15.93,4.72-25.45,4.72ZM1503.8,603.1c5.83,0,10.9-1.23,15.2-3.69,4.3-2.45,7.83-5.68,10.59-9.67,2.76-3.99,4.8-8.48,6.1-13.47,1.3-4.99,1.96-10.1,1.96-15.32s-.65-10.13-1.96-15.2c-1.31-5.07-3.34-9.56-6.1-13.47-2.76-3.91-6.3-7.1-10.59-9.56-4.3-2.46-9.37-3.69-15.2-3.69s-10.9,1.23-15.2,3.69c-4.3,2.46-7.83,5.64-10.59,9.56-2.76,3.92-4.8,8.41-6.1,13.47-1.31,5.07-1.96,10.13-1.96,15.2s.65,10.33,1.96,15.32c1.3,4.99,3.34,9.48,6.1,13.47,2.76,3.99,6.29,7.22,10.59,9.67,4.3,2.46,9.36,3.69,15.2,3.69Z"/>
  </g>
</svg>