<?xml version="1.0" encoding="UTF-8"?>
<svg id="Layer_1" xmlns="http://www.w3.org/2000/svg" version="1.1" viewBox="0 0 383.9 383.9">
  <!-- Generator: Adobe Illustrator 29.1.0, SVG Export Plug-In . SVG Version: 2.1.0 Build 142)  -->
  <defs>
    <style>
      .st0 {
        fill: none;
        stroke: #8b00ff;
        stroke-miterlimit: 10;
      }
    </style>
  </defs>
  <g>
    <path class="st0" d="M327.29,327.29c-35.71,35.71-84.83,56.1-135.34,56.1-50.51,0-99.63-20.39-135.34-56.1C20.89,291.58.5,242.46.5,191.95c0-50.51,20.39-99.63,56.1-135.34S141.44.5,191.95.5s99.63,20.39,135.34,56.1c35.71,35.71,56.1,84.83,56.1,135.34s-20.39,99.63-56.1,135.34Z"/>
    <path class="st0" d="M296.29,87.61c-56.89-56.89-151.79-56.89-208.68,0-56.89,56.89-56.89,151.79,0,208.68,56.89,56.89,151.79,56.89,208.68,0,56.89-56.89,56.89-151.79,0-208.68Z"/>
    <path class="st0" d="M271.69,271.69c-43.33,43.06-116.2,43.27-159.48,0-43.27-43.27-43.06-116.14,0-159.48,43.55-43.82,116.1-43.38,159.48,0s43.82,115.93,0,159.48Z"/>
    <path class="st0" d="M249.07,134.83c-15.06-15.06-42.31-19.67-65.49-19.67-20.49,0-40.06,4.8-54.93,19.67-16.84,16.84-30.27,41.17-30.25,65.49.02,22.08,16.65,41.33,30.25,54.92,13.6,13.6,32.84,30.22,54.93,30.23,24.33.01,48.64-13.38,65.49-30.23,14.86-14.86,19.67-34.44,19.67-54.92,0-23.18-4.62-50.44-19.68-65.49Z"/>
    <path class="st0" d="M212.61,260.71c-12.29,12.37-29.98,21.55-47.73,21.54-16.49,0-31.33-11.18-41.7-21.54-10.34-10.34-21.57-25.22-21.55-41.69.02-17.76,9.17-35.42,21.55-47.73,22.64-22.51,69.59-19.84,89.42,0,19.84,19.84,22.51,66.78,0,89.42Z"/>
    <path class="st0" d="M176.64,207.25c-17.34-17.34-47.39-17.44-64.82,0-17.91,17.91-17.46,47.36,0,64.82,17.46,17.46,46.91,17.91,64.82,0,17.44-17.44,17.34-47.48,0-64.82Z"/>
    <path class="st0" d="M148.33,280.86c-11.87,12.02-35.09,10.21-45.3,0-10.2-10.2-12.02-33.44,0-45.3,12.41-12.24,33.51-11.78,45.3,0,11.79,11.78,12.24,32.9,0,45.3Z"/>
    <path class="st0" d="M128.34,255.56c-7.83-7.82-21.47-8.35-29.8,0-7.79,7.8-6.35,23.45,0,29.8,6.35,6.36,22,7.79,29.8,0,8.34-8.33,7.81-22,0-29.8Z"/>
    <path class="st0" d="M115.19,286.21c-4.6,4.38-13.51,3.99-17.51,0-3.99-3.99-4.38-12.91,0-17.51,4.78-5.02,12.94-4.57,17.51,0,4.57,4.57,5.02,12.73,0,17.51Z"/>
    <path class="st0" d="M107.06,276.84c-2.1-2.1-5.65-2.15-7.75,0-2.05,2.11-1.88,5.87,0,7.75s5.64,2.05,7.75,0c2.15-2.1,2.1-5.65,0-7.75Z"/>
  </g>
  <g>
    <path class="st0" d="M102.34,281.55c10.22,8.08,25.54,4.32,37.14,1.59,17.04-4.01,33.59-9.94,50.21-15.36,13.85-4.52,27.88-9.19,42.29-11.59,8.94-1.49,20.21-2.99,27.62,3.44,10.9,9.46,20.69,20.65,30.9,30.86,12.26,12.26,24.53,24.53,36.79,36.79"/>
    <path class="st0" d="M102.34,281.55c7.11.46,14.55-2.53,21.03-5.05,9.47-3.68,18.64-8.15,27.73-12.69,17.95-8.97,35.59-18.54,53.44-27.69,25.22-12.94,51.62-26.96,79.64-32.72,15.92-3.27,31.25-.65,47.2.75,17.08,1.49,34.16,2.99,51.24,4.48"/>
    <path class="st0" d="M102.34,281.55c15.13-10.69,28.9-23.62,42.81-35.81,17-14.9,33.87-29.95,50.79-44.95,24.26-21.51,48.15-44.18,74.2-63.55,25.64-19.06,52.42-36.77,78.59-55.09"/>
    <path class="st0" d="M102.34,281.55c4.56-16.11,16.55-31.27,25.68-44.99,12.23-18.39,24.9-36.48,37.34-54.72,17.52-25.69,36.12-51.7,49.11-80.09,6.46-14.12,9.58-29.62,13.59-44.57,4.48-16.71,8.95-33.42,13.43-50.12"/>
    <path class="st0" d="M102.34,281.55c-5.71-13.03,2.94-32.14,7.3-44.41,6.32-17.77,13.76-35.13,20.71-52.66,5.94-14.98,11.79-30.09,16.02-45.66,2.82-10.39,5.48-21.72,4.08-32.57-.98-7.57-5.24-14.54-8.42-21.38-3.15-6.76-6.3-13.51-9.45-20.27-7.17-15.38-14.35-30.76-21.52-46.15"/>
    <path class="st0" d="M102.34,281.55c-9.86-6.53-7.88-19.91-6.31-30.15,2.04-13.38,5.68-26.49,8.71-39.67,2.73-11.86,5.48-23.99,5.71-36.22.15-7.89-.74-16.85-6.3-22.95-4.46-4.89-11.82-7.07-17.7-9.81-6.91-3.22-13.82-6.44-20.72-9.66-15.75-7.34-31.5-14.69-47.25-22.03"/>
    <path class="st0" d="M102.34,281.55c-8.44.85-9.28-3.59-7.82-11.32,1.57-8.31,4.79-16.29,7.15-24.39,2.23-7.66,7.91-24.88-4.41-26.89-6.13-1-12.9,1.82-18.7,3.37-6.52,1.75-13.05,3.5-19.57,5.24-17.31,4.64-34.62,9.28-51.92,13.91"/>
    <path class="st0" d="M102.34,281.55c-2.6,1.85-3.37,3.91-2.32,6.21,5.33-1.16,10-5.17,14.41-8.17,4.99-3.4,9.9-6.97,15.05-10.13,1.72-1.05,7.15-5.61,9.26-3.83,1.56,1.31-5.34,9.93-5.22,9.76-17.02,24.52-34.24,48.9-51.36,73.35"/>
    <path class="st0" d="M102.34,281.55c2.71,10.37,13.12,9.51,21.96,8.38,11.32-1.44,22.38-4.46,33.62-6.37,12.28-2.09,30.67-5.04,39.26,6.83,7.6,10.5,5.74,27.01,6.82,39.27,1.54,17.65,3.09,35.31,4.63,52.96"/>
  </g>
</svg>