<?xml version="1.0" encoding="UTF-8"?>
<svg id="Layer_1" xmlns="http://www.w3.org/2000/svg" version="1.1" viewBox="0 0 126.47 126.47">
  <!-- Generator: Adobe Illustrator 29.1.0, SVG Export Plug-In . SVG Version: 2.1.0 Build 142)  -->
  <defs>
    <style>
      .st0 {
        fill: #fff;
      }
    </style>
  </defs>
  <circle class="st0" cx="81.66" cy="44.7" r="4.33"/>
  <path class="st0" d="M63.23,80.56c9.57,0,17.33-7.76,17.33-17.33s-7.76-17.33-17.33-17.33-17.33,7.76-17.33,17.33,7.76,17.33,17.33,17.33ZM63.23,51.97c6.22,0,11.26,5.05,11.26,11.26,0,6.22-5.04,11.26-11.26,11.26s-11.26-5.04-11.26-11.26,5.04-11.26,11.26-11.26Z"/>
  <g>
    <path class="st0" d="M45.91,97.89h34.65c9.57,0,17.33-7.76,17.33-17.33v-34.65c0-9.57-7.76-17.33-17.33-17.33h-34.65c-9.57,0-17.33,7.76-17.33,17.33v34.65c0,9.57,7.76,17.33,17.33,17.33ZM34.64,45.91c0-6.22,5.05-11.26,11.26-11.26h34.65c6.22,0,11.26,5.05,11.26,11.26v34.65c0,6.22-5.05,11.26-11.26,11.26h-34.65c-6.22,0-11.26-5.05-11.26-11.26v-34.65Z"/>
    <path class="st0" d="M63.23,126.47C28.37,126.47,0,98.1,0,63.23S28.37,0,63.23,0s63.23,28.37,63.23,63.23-28.37,63.23-63.23,63.23ZM63.23,3.93C30.53,3.93,3.93,30.53,3.93,63.23s26.6,59.31,59.31,59.31,59.31-26.61,59.31-59.31S95.94,3.93,63.23,3.93Z"/>
  </g>
</svg>