<?xml version="1.0" encoding="UTF-8"?>
<svg id="Layer_1" xmlns="http://www.w3.org/2000/svg" version="1.1" viewBox="0 0 126.47 126.47">
  <!-- Generator: Adobe Illustrator 29.1.0, SVG Export Plug-In . SVG Version: 2.1.0 Build 142)  -->
  <defs>
    <style>
      .st0 {
        fill: #fff;
      }
    </style>
  </defs>
  <g id="Linkedin_3">
    <path class="st0" d="M63.23,126.47C28.37,126.47,0,98.1,0,63.23S28.37,0,63.23,0s63.23,28.37,63.23,63.23-28.37,63.23-63.23,63.23ZM63.23,3.82C30.47,3.82,3.82,30.47,3.82,63.23s26.65,59.42,59.42,59.42,59.42-26.65,59.42-59.42S96,3.82,63.23,3.82Z"/>
    <g>
      <path class="st0" d="M67.98,54.87c1.01-1.13,1.84-2.28,2.87-3.26,3.18-3,6.94-4.51,11.33-4.47,2.41.02,4.8.19,7.13.87,5.32,1.54,8.42,5.2,9.89,10.4,1.11,3.9,1.31,7.9,1.32,11.92.01,8.47-.02,16.94,0,25.41,0,.79-.22,1-1,.99-4.36-.04-8.73-.04-13.09,0-.77,0-.93-.23-.93-.96.02-8.06.03-16.12,0-24.18,0-2.02-.14-4.04-.7-6-1.04-3.62-3.63-5.46-7.42-5.26-5.17.27-7.87,2.84-8.53,8.1-.16,1.26-.23,2.51-.23,3.78,0,7.84,0,15.68.02,23.52,0,.78-.19,1.01-.99,1.01-4.4-.04-8.79-.03-13.19,0-.7,0-.91-.19-.91-.9.02-15.52.02-31.04,0-46.56,0-.77.25-.95.98-.94,4.17.03,8.35.03,12.52,0,.77,0,.97.24.95.97-.04,1.85-.01,3.71-.01,5.57Z"/>
      <path class="st0" d="M44.07,72.6c0,7.68-.01,15.36.02,23.04,0,.85-.21,1.11-1.09,1.1-4.36-.05-8.73-.04-13.09,0-.7,0-.91-.17-.91-.89.02-15.55.02-31.09,0-46.64,0-.64.16-.87.84-.87,4.43.03,8.85.04,13.28,0,.85,0,.97.32.96,1.05-.02,7.74-.01,15.48-.01,23.22Z"/>
      <path class="st0" d="M45.27,32.93c0,4.82-3.91,8.75-8.72,8.75-4.75,0-8.69-3.93-8.71-8.67-.02-4.8,3.93-8.75,8.73-8.74,4.77,0,8.69,3.92,8.7,8.67Z"/>
    </g>
  </g>
</svg>