<?xml version="1.0" encoding="UTF-8"?>
<svg id="Layer_1" xmlns="http://www.w3.org/2000/svg" version="1.1" viewBox="0 0 160.27 135.86">
  <!-- Generator: Adobe Illustrator 29.1.0, SVG Export Plug-In . SVG Version: 2.1.0 Build 142)  -->
  <defs>
    <style>
      .st0 {
        fill: #c074ff;
      }

      .st0, .st1, .st2 {
        fill-rule: evenodd;
      }

      .st1, .st3 {
        fill: #f5f8ff;
      }

      .st2 {
        fill: #8b00ff;
      }
    </style>
  </defs>
  <path class="st2" d="M143.72,33.1c-9.14,0-16.55-7.41-16.55-16.55S134.58,0,143.72,0s16.55,7.41,16.55,16.55-7.41,16.55-16.55,16.55h0Z"/>
  <path class="st0" d="M29.23,98.84c-16.15,0-29.23-13.09-29.23-29.24s13.09-29.24,29.23-29.24,29.24,13.09,29.24,29.24-13.09,29.24-29.24,29.24h0Z"/>
  <path class="st3" d="M35.97,19.96c9.86-5.55,24.3-6.78,38.46-4.76,14.61,2.08,28.93,7.61,37.61,15.38-8.18-6.71-20.86-11.46-33.8-13.3-13.19-1.88-26.67-.72-35.91,4.5l-.04.02h-.01c-3.65,2.79-6.42,5.81-8.4,9.28-1.99,3.47-3.19,7.4-3.72,12-2.73,24.22,14.85,37.12,31.52,49.36l1.2.88c1.98,1.46,3.7,2.86,5.24,4.24l.66-.7c-1.56-1.39-3.31-2.83-5.34-4.31l-1.2-.88c-16.45-12.08-33.8-24.81-31.13-48.48.5-4.46,1.67-8.27,3.6-11.62,1.92-3.35,4.6-6.27,8.13-8.96,9.04-5.09,22.28-6.21,35.27-4.36,13.43,1.91,26.57,6.99,34.54,14.14-7.46-6.08-18.98-10.39-30.71-12.06-12.03-1.71-24.31-.65-32.73,4.11l-.04.02h-.01c-3.33,2.55-5.85,5.3-7.67,8.46-1.81,3.17-2.91,6.75-3.38,10.94-2.5,22.08,13.52,33.83,28.71,44.98l1.1.8c1.62,1.2,3.06,2.36,4.36,3.49l.65-.7c-1.32-1.16-2.78-2.34-4.45-3.56l-1.09-.8c-14.97-10.99-30.76-22.57-28.33-44.1.46-4.06,1.51-7.52,3.26-10.57,1.74-3.05,4.18-5.7,7.39-8.15,8.24-4.63,20.28-5.65,32.09-3.97,12.27,1.74,24.26,6.39,31.51,12.93-6.74-5.47-17.12-9.35-27.68-10.85-10.85-1.54-21.93-.59-29.54,3.71l-.04.02h-.02c-3,2.3-5.28,4.79-6.92,7.65-1.63,2.86-2.63,6.1-3.06,9.89-2.24,19.94,12.21,30.55,25.92,40.61l.98.72c1.29.94,2.43,1.85,3.48,2.75l.65-.71c-1.07-.92-2.24-1.85-3.56-2.82l-.98-.72c-13.49-9.9-27.71-20.34-25.53-39.73.41-3.65,1.37-6.77,2.94-9.51,1.57-2.74,3.76-5.12,6.65-7.33,7.41-4.17,18.26-5.08,28.9-3.57,11.08,1.58,21.93,5.79,28.45,11.71-6.01-4.85-15.24-8.29-24.63-9.63-9.68-1.38-19.57-.52-26.36,3.31l-.03.02h-.02c-2.68,2.06-4.72,4.28-6.18,6.83-1.47,2.56-2.35,5.45-2.73,8.83-2,17.79,10.88,27.25,23.11,36.23l.88.64c.93.68,1.79,1.35,2.57,2.01l.66-.71c-.82-.68-1.7-1.37-2.67-2.08l-.88-.65c-12.01-8.81-24.66-18.11-22.72-35.35.37-3.25,1.21-6.02,2.61-8.45,1.39-2.44,3.33-4.56,5.91-6.51,6.59-3.71,16.23-4.52,25.71-3.17,9.9,1.41,19.59,5.18,25.39,10.48-5.29-4.23-13.36-7.23-21.56-8.4-8.51-1.21-17.2-.46-23.17,2.91l-.04.02h-.01c-2.36,1.81-4.15,3.77-5.45,6.02-1.29,2.25-2.06,4.79-2.4,7.77-1.77,15.65,9.56,23.97,20.31,31.85l.76.57c.6.44,1.16.86,1.68,1.28l.65-.71c-.54-.44-1.13-.9-1.75-1.35l-.77-.57c-10.52-7.73-21.63-15.87-19.92-30.97.32-2.84,1.06-5.26,2.28-7.4,1.22-2.13,2.93-3.98,5.18-5.7,5.77-3.24,14.22-3.96,22.52-2.77,8.69,1.24,17.19,4.55,22.27,9.19l.07.06c-4.57-3.61-11.47-6.18-18.51-7.18-7.33-1.04-14.83-.4-19.98,2.51l-.04.02h-.01c-2.04,1.57-3.6,3.25-4.71,5.2-1.11,1.94-1.79,4.14-2.08,6.71-1.51,13.51,8.25,20.68,17.51,27.48l.66.49c.26.19.51.38.75.57l.66-.71c-.27-.21-.56-.42-.85-.64l-.66-.49c-9.04-6.64-18.58-13.64-17.12-26.59.28-2.44.92-4.51,1.96-6.34,1.05-1.82,2.51-3.41,4.42-4.88,4.96-2.78,12.21-3.39,19.35-2.38,7.46,1.06,14.76,3.9,19.12,7.89l.14.13c-3.84-3-9.59-5.12-15.45-5.95-6.16-.88-12.46-.33-16.8,2.12l-.03.02h-.02c-1.71,1.32-3.02,2.74-3.96,4.38-.94,1.64-1.51,3.49-1.75,5.66-1.29,11.37,6.92,17.39,14.71,23.1l.38.28.65-.71-.47-.35c-7.56-5.55-15.54-11.4-14.32-22.22.23-2.03.76-3.76,1.63-5.28.87-1.52,2.08-2.84,3.68-4.07,4.14-2.32,10.2-2.83,16.16-1.98,6.24.89,12.36,3.26,15.99,6.6l.22.21c-3.11-2.38-7.71-4.07-12.39-4.73-4.99-.71-10.1-.27-13.62,1.72l-.03.02h-.02c-1.39,1.08-2.45,2.23-3.21,3.57-.76,1.33-1.23,2.84-1.43,4.6-1,8.9,5.14,13.75,11.23,18.24l.66-.71c-5.91-4.34-11.89-9.02-10.94-17.42.18-1.63.61-3.01,1.31-4.23.69-1.21,1.66-2.27,2.94-3.25,3.31-1.86,8.18-2.26,12.97-1.58,5.02.71,9.94,2.62,12.86,5.3.1.1.21.19.32.3-2.39-1.77-5.84-3.02-9.35-3.52-3.81-.54-7.72-.2-10.43,1.32l-.04.02h-.01c-1.08.83-1.9,1.72-2.48,2.75-.59,1.03-.95,2.19-1.1,3.54-.7,6.25,3.17,9.89,7.4,13.09l.66-.71c-4.04-3.05-7.75-6.5-7.1-12.27.14-1.22.46-2.26.98-3.17.52-.91,1.25-1.7,2.21-2.44,2.49-1.39,6.17-1.7,9.78-1.18,3.33.47,6.6,1.64,8.85,3.29l5.15-5.52c-2.7-3.93-5.59-7.35-8.57-10.09-8.8-8.06-23.49-13.79-38.47-15.92-14.37-2.05-29.04-.78-39.1,4.9l-.03.02h-.02c-3.97,3.04-6.98,6.32-9.14,10.09-2.17,3.78-3.48,8.05-4.04,13.06-2.97,26.36,16.17,40.41,34.32,53.74l1.31.96c2.34,1.72,4.36,3.38,6.12,4.99l.66-.71c-1.8-1.63-3.84-3.31-6.21-5.06l-1.31-.96c-17.93-13.16-36.85-27.04-33.94-52.85.56-4.87,1.82-9.02,3.92-12.68,2.09-3.66,5.01-6.84,8.87-9.78h0ZM68.84,98.2h0l.65-.71h0l-.65.71h0ZM69.53,98.86c4,3.81,6.62,7.38,9.35,11.1,2.58,3.51,5.25,7.15,9.24,11.23,1.36,1.4,2.88,2.6,4.5,3.61,5.57,3.48,12.43,4.72,19.04,3.97,6.61-.75,12.99-3.49,17.58-7.97,1.34-1.31,2.54-2.77,3.53-4.37,6.05-9.69,6.57-24.17,3.65-38.76,3.72,16.5,3.49,33.14-3.3,44.02-1.05,1.67-2.3,3.2-3.69,4.57-4.85,4.73-11.58,7.62-18.58,8.41-6.99.79-14.24-.52-20.1-4.18-1.7-1.06-3.28-2.32-4.71-3.78-4.3-4.4-7.19-8.33-9.98-12.13-2.94-4.01-5.77-7.87-10.03-11.97l-.65.71c4.19,4.05,6.99,7.87,9.91,11.84,2.81,3.82,5.72,7.78,10.06,12.23,1.48,1.52,3.13,2.83,4.89,3.93,6.06,3.78,13.52,5.13,20.72,4.32,7.2-.81,14.13-3.79,19.13-8.68,1.46-1.43,2.76-3.01,3.85-4.75,6.96-11.16,7.19-28.18,3.37-44.97-2.91-12.78-8.18-25.45-14.61-35.32l-4.82,5.15c2.45,2.58,4.56,6.96,5.58,11.4.97,4.24.93,8.52-.81,11.28-.25.41-.56.79-.9,1.13-1.21,1.18-2.89,1.9-4.64,2.1-1.74.2-3.55-.13-5.01-1.04-.43-.26-.82-.57-1.17-.93-1.1-1.13-1.85-2.15-2.57-3.13-1.17-1.59-2.27-3.09-4.69-4.87l-.34-.25-.05-.04-.66.71.15.11.34.25c2.29,1.68,3.36,3.13,4.48,4.66.74,1.01,1.5,2.05,2.66,3.23.4.42.86.78,1.34,1.08,1.66,1.03,3.68,1.4,5.63,1.18,1.95-.22,3.85-1.03,5.21-2.36.4-.39.75-.83,1.06-1.31,1.66-2.66,1.9-6.52,1.22-10.48.07.26.13.53.2.79,1.27,5.61,1.22,11.27-1.08,14.94-.34.55-.75,1.06-1.22,1.51-1.6,1.57-3.85,2.53-6.18,2.8-2.33.26-4.75-.17-6.7-1.39-.56-.35-1.09-.77-1.56-1.25-1.46-1.49-2.44-2.83-3.39-4.13-1.44-1.96-2.8-3.82-5.59-5.96l-.66.71c2.73,2.09,4.06,3.9,5.48,5.82.96,1.32,1.97,2.69,3.48,4.23.52.54,1.11,1.01,1.73,1.39,2.15,1.34,4.78,1.82,7.31,1.53,2.54-.29,4.99-1.34,6.75-3.06.52-.51.98-1.07,1.36-1.69,2.21-3.53,2.49-8.72,1.54-13.99.05.22.11.43.15.65,1.59,6.98,1.51,14.03-1.34,18.61-.44.69-.95,1.33-1.53,1.89-2.02,1.97-4.83,3.17-7.74,3.5-2.92.33-5.94-.21-8.38-1.74-.7-.44-1.35-.96-1.94-1.56-1.82-1.86-3.04-3.52-4.22-5.13-1.65-2.23-3.2-4.35-6.12-6.74l-.65.71c2.85,2.33,4.39,4.41,5.99,6.6,1.2,1.63,2.44,3.33,4.3,5.23.64.66,1.36,1.23,2.14,1.71,2.63,1.64,5.86,2.23,8.99,1.88,3.12-.35,6.12-1.65,8.29-3.77.64-.62,1.21-1.31,1.68-2.07,2.76-4.41,3.07-10.92,1.84-17.53l.12.52c1.91,8.35,1.81,16.79-1.61,22.27-.52.83-1.14,1.59-1.84,2.27-2.42,2.36-5.79,3.8-9.28,4.2-3.5.39-7.11-.26-10.05-2.09-.85-.53-1.63-1.15-2.34-1.88-2.17-2.22-3.64-4.21-5.04-6.13-1.83-2.49-3.57-4.87-6.66-7.5l-.66.71c3.03,2.58,4.75,4.92,6.55,7.37,1.43,1.94,2.91,3.96,5.12,6.23.77.78,1.62,1.46,2.53,2.03,3.12,1.95,6.96,2.64,10.67,2.23,3.7-.42,7.27-1.95,9.85-4.47.75-.74,1.42-1.56,1.98-2.46,3.3-5.29,3.65-13.12,2.15-21.06l.09.38c2.21,9.72,2.09,19.54-1.9,25.94-.61.97-1.33,1.86-2.15,2.66-2.82,2.76-6.74,4.44-10.83,4.9-4.07.46-8.3-.3-11.72-2.43-.99-.62-1.91-1.35-2.73-2.2-2.53-2.58-4.23-4.9-5.86-7.13-2.03-2.75-3.95-5.38-7.21-8.26l-.66.71c3.2,2.83,5.11,5.42,7.1,8.12,1.66,2.26,3.38,4.6,5.94,7.23.89.91,1.87,1.69,2.92,2.34,3.62,2.25,8.06,3.06,12.34,2.58,4.28-.48,8.42-2.26,11.4-5.17.87-.85,1.65-1.8,2.29-2.84,3.86-6.17,4.24-15.33,2.45-24.59l.05.26c2.53,11.09,2.4,22.3-2.16,29.6-.7,1.11-1.53,2.13-2.46,3.04-3.23,3.15-7.71,5.08-12.38,5.6-4.66.53-9.49-.35-13.4-2.78-1.12-.71-2.18-1.54-3.13-2.51-2.88-2.95-4.82-5.58-6.68-8.13-2.21-3.01-4.33-5.89-7.78-9.01l-.65.71c3.39,3.07,5.47,5.91,7.65,8.87,1.9,2.57,3.85,5.24,6.78,8.23,1,1.03,2.11,1.92,3.31,2.66,4.1,2.56,9.14,3.47,14.01,2.92,4.87-.55,9.57-2.57,12.94-5.87.99-.97,1.87-2.04,2.6-3.22,4.4-7.05,4.83-17.54,2.75-28.13l.03.13c2.84,12.46,2.69,25.06-2.43,33.26-.78,1.25-1.72,2.4-2.77,3.42-3.63,3.55-8.68,5.71-13.92,6.3-5.25.59-10.69-.39-15.08-3.13-1.27-.79-2.46-1.74-3.53-2.83-3.24-3.31-5.4-6.27-7.51-9.13-2.39-3.26-4.69-6.39-8.33-9.76l-.65.71c3.58,3.32,5.85,6.4,8.22,9.62,2.11,2.88,4.31,5.87,7.59,9.23,1.12,1.15,2.38,2.14,3.7,2.98,4.59,2.86,10.24,3.89,15.69,3.27,5.46-.62,10.71-2.87,14.49-6.57,1.11-1.08,2.09-2.28,2.92-3.61,4.95-7.93,5.4-19.76,3.04-31.68v.02c3.16,13.83,2.99,27.82-2.7,36.93-.87,1.39-1.91,2.67-3.07,3.81-4.03,3.94-9.64,6.35-15.47,7-5.83.66-11.87-.43-16.76-3.48-1.42-.88-2.73-1.93-3.92-3.15-3.58-3.67-5.99-6.96-8.32-10.13-2.58-3.51-5.06-6.88-8.9-10.5l-.65.71c3.78,3.56,6.23,6.89,8.78,10.36,2.34,3.2,4.77,6.51,8.41,10.23,1.24,1.27,2.63,2.37,4.1,3.29,5.08,3.17,11.34,4.3,17.38,3.62,6.03-.68,11.84-3.18,16.04-7.27,1.22-1.2,2.31-2.53,3.22-3.99,5.49-8.8,5.98-21.95,3.34-35.2,3.43,15.16,3.23,30.47-3.01,40.46-.96,1.53-2.1,2.93-3.39,4.19-4.43,4.33-10.61,6.98-17.02,7.71-6.41.72-13.05-.48-18.43-3.83-1.55-.97-3.01-2.12-4.3-3.46-3.94-4.04-6.6-7.65-9.15-11.13-2.77-3.76-5.43-7.38-9.47-11.24l-.66.71h0ZM122.15,41.08h0s-4.95,5.31-4.95,5.31l4.95-5.31h0ZM102.5,62.12h0l-.65.71h0l.65-.71h0ZM98.42,66.51h0l-.66.71h0l.66-.71h0ZM94.32,70.9h0l-.66.71h0s.66-.71.66-.71h0ZM90.2,75.31h0l-.66.71.66-.71h0ZM86.07,79.73l-.66.71h0l.66-.71h0ZM81.93,84.17h0s-.65.7-.65.7l.65-.7h0ZM77.79,88.6l-.66.71h0s.66-.71.66-.71h0ZM73.64,93.05h0l-.65.71h0l.65-.71h0Z"/>
  <polygon class="st3" points="143.01 15.9 41.51 124.64 42.22 125.3 143.72 16.55 143.01 15.9 143.01 15.9"/>
  <path class="st1" d="M143.37,13.76c-1.36,0-2.46,1.1-2.46,2.46s1.1,2.46,2.46,2.46,2.46-1.1,2.46-2.46-1.1-2.46-2.46-2.46h0Z"/>
  <path class="st1" d="M41.87,122.51c-1.36,0-2.46,1.1-2.46,2.46s1.1,2.46,2.46,2.46,2.46-1.1,2.46-2.46-1.1-2.46-2.46-2.46h0Z"/>
</svg>