<?xml version="1.0" encoding="UTF-8"?>
<svg id="Layer_1" xmlns="http://www.w3.org/2000/svg" version="1.1" viewBox="0 0 144.52 138.77">
  <!-- Generator: Adobe Illustrator 29.1.0, SVG Export Plug-In . SVG Version: 2.1.0 Build 142)  -->
  <defs>
    <style>
      .st0 {
        fill: #c074ff;
      }

      .st0, .st1, .st2 {
        fill-rule: evenodd;
      }

      .st1, .st3 {
        fill: #f5f8ff;
      }

      .st2 {
        fill: #8b00ff;
      }
    </style>
  </defs>
  <polygon class="st0" points="33.64 135.86 4.03 135.86 4.03 106.25 33.64 106.25 33.64 135.86 33.64 135.86"/>
  <path class="st2" d="M118.23,52.58c14.52,0,26.29-11.77,26.29-26.29,0-14.52-11.77-26.29-26.29-26.29s-26.3,11.77-26.3,26.29c0,14.52,11.78,26.29,26.3,26.29h0Z"/>
  <path class="st3" d="M20.87,21.87c-.28-1.42-1.54-2.5-3.03-2.5-1.71,0-3.09,1.38-3.09,3.09s1.39,3.09,3.09,3.09h0l.02,3.95c.03,4.63.06,9.29-.02,13.84-.13,7.3-4.53,13.38-8.9,19.41-6,8.28-11.95,16.47-7.25,27.84,2.04,4.97,5.03,8.51,7.89,11.91,3.69,4.38,7.17,8.51,8.05,15.2-.97.52-1.63,1.54-1.63,2.72,0,1.71,1.39,3.09,3.09,3.09,1.26,0,2.35-.75,2.83-1.83,3.1-.01,6.09-.04,9.06-.1,4.09-.08,8.17-.2,12.5-.37,9.53-.38,16.26,4.78,22.51,9.56,8.5,6.5,16.11,12.33,28.51,3.56,2.23-1.58,4.14-3.15,5.93-4.63,5.36-4.43,9.73-8.04,18.5-8.02h3.72c.49,1.08,1.56,1.83,2.83,1.83,1.71,0,3.08-1.38,3.08-3.09,0-1.26-.74-2.33-1.82-2.82V25.49c1.42-.28,2.5-1.53,2.5-3.03,0-1.71-1.39-3.09-3.09-3.09-1.51,0-2.76,1.07-3.03,2.5h-13.14s-1.91,0-1.91,0c-7.02-.03-12.18-3-17.37-5.98-8.63-4.96-17.33-9.95-34.59-2.32-3.06,1.35-5.69,2.56-7.89,3.56-5.07,2.32-7.72,3.53-10.5,4.15-3.03.67-6.33.65-13.21.62l-3.64-.02h0ZM122.39,120.41h-3.46c-5.89-.02-9.87,1.5-13.42,3.8-.06-9.02-.1-18.14-.14-27.31,4.76.35,10.77.26,15.83.19,1.54-.02,2.98-.04,4.28-.05v20.28c-1.71,0-3.09,1.38-3.09,3.09h0ZM19.09,117.33c-.08,0-.16,0-.24,0-.94-6.91-4.52-11.16-8.3-15.65-.65-.77-1.31-1.55-1.95-2.35,10.43.55,17.81-1.07,24.49-3.96.56.91,1.06,1.73,1.53,2.49,4.71,7.67,5.06,8.25,4.82,22.22-2.88.1-5.68.17-8.47.22-2.89.05-5.79.09-8.78.1,0-1.7-1.39-3.08-3.09-3.08h0ZM64.45,74.47c-.26-2.85-.6-5.72-1.01-8.69h0c-.65-4.54-.85-9.34-.83-14.3,1.13-1.93,2.2-3.86,3.22-5.69.37-.66.72-1.29,1.25-2.25,6.5-11.59,10.87-14.2,14.45-12.2.8.44,1.56,1.11,2.32,1.95-.11,3.22-.26,6.42-.41,9.62-.43,9.22-.87,18.43-.27,28.11h0c.15,2.27.27,4.5.37,6.7.05,1.09.08,2.18.11,3.27-4.43-3.72-9.66-6.23-17.26-4.48-.27-.96-1-1.73-1.94-2.06h0ZM66.49,77.83c7.66-1.78,12.82,1,17.21,4.9,0,.57.02,1.14.03,1.71.05,3.89.11,7.85.17,11.85.23,13.7.45,27.95,0,41.09-6.43.56-11.58-3.38-17.12-7.62-1.06-.81-2.12-1.62-3.21-2.42.36-6.28.72-13.11.99-19.95.27-6.92.47-13.83.5-20.17,0-2.43-.06-4.78-.17-7.09.86-.45,1.48-1.3,1.62-2.3h0ZM63.62,80.47c.1,2.21.16,4.45.15,6.74-.03,6.31-.22,13.21-.5,20.13-.25,6.5-.59,13.04-.94,19.13-5.25-3.7-11.16-6.82-18.89-6.52-.92.04-1.84.07-2.74.1.25-14.29-.12-14.89-5-22.84-.44-.72-.92-1.5-1.43-2.35,4.34-1.99,8.46-4.51,13.01-7.3,3.74-2.29,7.78-4.76,12.52-7.28.5-.24.99-.47,1.48-.69.56.54,1.31.88,2.16.88.06,0,.12,0,.19,0h0ZM60.56,78.53c-.43.19-.88.4-1.33.62h-.02c-4.74,2.53-8.82,5.03-12.59,7.34-4.56,2.79-8.67,5.3-13.02,7.28-.59-.98-1.22-2.04-1.89-3.21-3.95-6.84-3.28-11.88-1.08-16.86,8.22-1.75,15.84-4.26,19.83-7.13,4.22-3.05,7.8-7.93,10.9-12.99.05,4.27.28,8.42.84,12.38h0c.4,2.85.73,5.6.98,8.36-1.58.13-2.83,1.46-2.83,3.08,0,.4.08.79.22,1.14h0ZM20.85,23.13c1.49,0,2.62,0,3.65.01,6.98.03,10.32.05,13.49-.65.52-.11,1.03-.25,1.55-.4,0,1.38.02,2.86.04,4.38.06,6.4.13,13.8-.22,19.76-5.34.89-11.19.69-16.45.52-1.42-.05-2.8-.1-4.13-.12.19-1.06.3-2.15.32-3.27.08-4.56.05-9.23.03-13.86,0-1.35-.02-2.7-.03-4.21.88-.39,1.54-1.19,1.75-2.15h0ZM125.48,25.48v21.03c-.91,0-1.9.03-2.89.05-5.47.11-10.66.22-15.77-2.35h0c-.56-.29-1.07-.58-1.56-.87,0-6.82,0-13.61,0-20.38.9.1,1.84.16,2.81.17h1.91s13.17,0,13.17,0c.25,1.17,1.18,2.09,2.35,2.35h0ZM7.56,98.01c-1.77-2.3-3.43-4.83-4.7-7.91-2.18-5.28-1.89-9.87-.35-14.13,5.79.89,15.94.1,25.63-1.77.33-.06.65-.12.97-.19-2.06,5.01-2.52,10.18,1.51,17.17.66,1.14,1.26,2.16,1.82,3.1-6.74,2.87-14.2,4.44-24.88,3.73h0ZM2.98,74.77c1.66-3.93,4.32-7.6,6.98-11.28,3.58-4.93,7.17-9.89,8.56-15.6,1.38.02,2.84.07,4.35.12,5.23.18,11.03.37,16.41-.48-.04.57-.08,1.13-.13,1.66-.7,7.58-3.81,13.12-6.61,18.1-1.02,1.82-2,3.56-2.81,5.31-.6.13-1.22.25-1.83.36-9.41,1.81-19.23,2.6-24.92,1.8h0ZM31.29,72.27c.71-1.43,1.52-2.87,2.35-4.35,2.86-5.09,6.03-10.75,6.76-18.61.07-.64.11-1.31.16-2,2.32-.45,4.53-1.11,6.57-2.08l.05-.02c4.78-2.76,8.66-7.8,12.45-12.69.87-1.13,1.73-2.25,2.61-3.34-.09,2.1-.21,4.22-.31,6.33-.26,5.27-.53,10.52-.57,15.64-3.29,5.56-7.1,11.14-11.64,14.41-3.69,2.66-10.71,5.01-18.42,6.72h0ZM40.64,46c.32-5.94.25-13.22.19-19.53,0-1.68-.03-3.29-.04-4.78,2.07-.73,4.44-1.81,7.95-3.42,2.07-.95,4.57-2.1,7.87-3.55,2.03-.9,3.93-1.61,5.73-2.17.24,4.7.16,9.58-.03,14.53-1.24,1.48-2.46,3.07-3.69,4.66-3.7,4.78-7.51,9.71-12.05,12.35-1.84.87-3.84,1.48-5.93,1.91h0ZM62.64,48.92c.08-4.39.31-8.87.54-13.36.13-2.67.26-5.34.38-8,1.63-1.93,3.29-3.67,5.02-5,4.26-3.27,9.07-4.07,15.43.83.03,2.75-.02,5.47-.09,8.17-.57-.53-1.14-.97-1.74-1.31-4.26-2.39-9.22.26-16.18,12.68-.28.5-.76,1.37-1.25,2.25-.67,1.21-1.37,2.46-2.09,3.73h0ZM63.62,25.55c.15-4.55.19-9.03-.04-13.37,8.62-2.39,14.72-1.06,20.04,1.36v.07c.21,2.75.31,5.47.36,8.16-6.53-4.71-11.63-3.72-16.18-.22-1.45,1.11-2.83,2.48-4.18,3.99h0ZM85.14,137.21c.45-13.09.23-27.29,0-40.94-.07-4.02-.13-7.99-.17-11.84v-.52c1.12,1.09,2.21,2.23,3.3,3.36,4.02,4.22,7.93,8.31,13.39,9.21.75.12,1.57.23,2.44.31.04,9.5.08,18.94.15,28.27-1.55,1.1-3.04,2.34-4.63,3.65-1.79,1.47-3.67,3.03-5.85,4.57-3.17,2.24-6.01,3.46-8.64,3.92h0ZM84.95,82.15c-.04-1.5-.08-2.98-.14-4.46-.1-2.26-.23-4.49-.37-6.73-.59-9.62-.16-18.8.27-27.98.12-2.72.25-5.44.36-8.18,1.91,2.63,3.76,6.27,5.74,10.16,2,3.94,4.12,8.13,6.61,11.84l.64.95h0c.53.81.75,1.16.97,1.5h0c1.55,2.39,3.15,4.87,5,7.02l.02,7.85c0,7.15.04,14.3.07,21.4-.8-.08-1.55-.17-2.23-.29-5.04-.83-8.81-4.77-12.68-8.83-1.39-1.45-2.78-2.91-4.25-4.26h0ZM85.14,32.86c.09-2.79.15-5.6.14-8.43,2.24,1.94,4.67,4.57,7.32,8.02h0c.41.55.9,1.17,1.34,1.76,3.34,4.4,5.32,6.99,10.05,9.85,0,6.73,0,13.48.03,20.22-1.42-1.8-2.7-3.78-3.95-5.7h0c-.43-.67-.86-1.32-.97-1.5h0s-.64-.96-.64-.96c-2.44-3.64-4.54-7.8-6.53-11.71-2.31-4.55-4.45-8.76-6.79-11.55h0ZM85.27,22.75c-.04-2.83-.13-5.68-.33-8.59,1.76.87,3.45,1.84,5.13,2.81,4.3,2.47,8.57,4.92,13.92,5.8,0,6.57,0,13.17.02,19.79-4.09-2.6-5.96-5.07-9.05-9.12-.41-.53-.82-1.07-1.36-1.77h0c-3.02-3.94-5.79-6.86-8.33-8.92h0ZM105.37,95.64c-.03-7.14-.05-14.32-.07-21.51v-6.49c2.64,2.66,5.81,4.57,10.02,4.76,2.26.1,4.85.07,7.35.03.9-.01,1.78-.02,2.82-.02v23.38c-1.31,0-2.76.03-4.3.05-5.07.08-11.1.16-15.82-.19h0ZM105.29,65.78c-.02-7-.03-14.01-.04-21,.31.17.64.35.97.53h.02c5.39,2.73,10.73,2.61,16.38,2.5.9-.02,1.83-.04,2.86-.04v23.37c-.82,0-1.82.02-2.84.03-2.47.03-5.03.06-7.27-.03-4.26-.19-7.43-2.39-10.08-5.35h0Z"/>
  <path class="st1" d="M85.6,28.22c1.58,0,2.86,1.28,2.86,2.86s-1.28,2.86-2.86,2.86-2.86-1.28-2.86-2.86,1.27-2.86,2.86-2.86h0Z"/>
  <path class="st1" d="M38.05,41.92c1.57,0,2.86,1.28,2.86,2.86s-1.28,2.86-2.86,2.86-2.86-1.28-2.86-2.86,1.28-2.86,2.86-2.86h0Z"/>
</svg>