<?xml version="1.0" encoding="UTF-8"?>
<svg id="Layer_1" xmlns="http://www.w3.org/2000/svg" version="1.1" viewBox="0 0 141.77 138.77">
  <!-- Generator: Adobe Illustrator 29.1.0, SVG Export Plug-In . SVG Version: 2.1.0 Build 142)  -->
  <defs>
    <style>
      .st0 {
        fill: #c074ff;
      }

      .st0, .st1, .st2 {
        fill-rule: evenodd;
      }

      .st1, .st3 {
        fill: #f5f8ff;
      }

      .st2 {
        fill: #8b00ff;
      }
    </style>
  </defs>
  <polygon class="st0" points="43.33 138.77 43.33 95.44 0 95.44 0 138.77 43.33 138.77 43.33 138.77"/>
  <polygon class="st2" points="141.77 51.22 141.77 0 90.55 0 90.55 51.22 141.77 51.22 141.77 51.22"/>
  <path class="st1" d="M57.68,9.69c.28-.39.73-.61,1.21-.61h74.73c.82,0,1.49.67,1.49,1.49v74.73c0,.56-.32,1.08-.82,1.33l-.05.02-59.56,35.29-.04.03c-.25.17-.54.26-.84.26H14.82c-.82,0-1.49-.67-1.49-1.49v-59c0-.4.16-.78.44-1.06l.05-.05L57.64,9.74l.04-.05h0ZM57.39,60.24V14.57S18.06,60.24,18.06,60.24h39.33ZM129.58,12.06H60.38s0,48.18,0,48.18h12.89s56.31-48.18,56.31-48.18h0ZM75.3,62.41v21.39s56.81,0,56.81,0V13.8s-56.81,48.61-56.81,48.61h0ZM128.18,86.79h-52.87s0,31.33,0,31.33l52.87-31.33h0ZM57.39,63.23H16.31s0,54.4,0,54.4l41.08-33.03v-21.36h0ZM59.4,86.79l-40.36,32.45h53.28s0-32.45,0-32.45h-12.92ZM60.38,83.8h11.94s0-20.57,0-20.57h-11.94s0,20.57,0,20.57h0Z"/>
  <polygon class="st3" points="60.38 12.06 132.12 83.8 134.58 81.34 62.84 9.6 60.38 12.06 60.38 12.06"/>
  <g>
    <path class="st1" d="M12.2,12.06c0-1.5,1.22-2.72,2.72-2.72s2.72,1.22,2.72,2.72-1.22,2.72-2.72,2.72c-1.5,0-2.72-1.22-2.72-2.72h0Z"/>
    <path class="st1" d="M132.38,133.32c0-1.5,1.22-2.72,2.72-2.72s2.72,1.22,2.72,2.72-1.22,2.72-2.72,2.72-2.72-1.22-2.72-2.72h0Z"/>
  </g>
</svg>