<?xml version="1.0" encoding="UTF-8"?>
<svg id="Layer_1" xmlns="http://www.w3.org/2000/svg" version="1.1" viewBox="0 0 126.47 126.47">
  <!-- Generator: Adobe Illustrator 29.1.0, SVG Export Plug-In . SVG Version: 2.1.0 Build 142)  -->
  <defs>
    <style>
      .st0 {
        fill: #fff;
      }
    </style>
  </defs>
  <g id="Twitter_3">
    <path class="st0" d="M63.23,126.47C28.37,126.47,0,98.1,0,63.23S28.37,0,63.23,0s63.23,28.37,63.23,63.23-28.37,63.23-63.23,63.23ZM63.23,3.93C30.53,3.93,3.93,30.53,3.93,63.23s26.6,59.31,59.31,59.31,59.31-26.61,59.31-59.31S95.94,3.93,63.23,3.93Z"/>
    <g id="layer1">
      <g id="path1009">
        <path class="st0" d="M69.52,57.89l25.02-27.04h-6.05l-21.68,23.42-17.51-23.42h-20.59l26.72,35.73-26.89,29.05h6.05l23.54-25.43,19.02,25.43h20.59l-28.22-37.74ZM37.61,35.31h9.46l41.77,55.85h-9.46l-41.77-55.85Z"/>
      </g>
    </g>
  </g>
</svg>